<?xml version="1.0" encoding="utf-8"?>
<!-- Generator: Adobe Illustrator 25.2.1, SVG Export Plug-In . SVG Version: 6.00 Build 0)  -->
<svg version="1.1" id="Layer_1" xmlns="http://www.w3.org/2000/svg" xmlns:xlink="http://www.w3.org/1999/xlink" x="0px" y="0px"
	 width="58px" height="51px" viewBox="0 0 58 51" style="enable-background:new 0 0 58 51;" xml:space="preserve">
<style type="text/css">
	.st0{fill-rule:evenodd;clip-rule:evenodd;fill:#D0D2D3;}
	.st1{fill:none;stroke:#000000;stroke-width:2.04;}
	.st2{fill-rule:evenodd;clip-rule:evenodd;}
	.st3{filter:url(#Adobe_OpacityMaskFilter);}
	.st4{fill-rule:evenodd;clip-rule:evenodd;fill:#FFFFFF;}
	.st5{mask:url(#mask-2_1_);fill-rule:evenodd;clip-rule:evenodd;fill:#004E97;}
</style>
<desc>Created with Sketch.</desc>
<g id="Symbols">
	<g id="accessory-fitment" transform="translate(-29.000000, 0.000000)">
		<g id="Group-5">
			<g id="Group-34" transform="translate(31.000000, 0.000000)">
				<path id="Fill-1" class="st0" d="M30.6,32.9c-3.9-3.4-2.4-5.4-2.4-5.4c0.7-2.2,5.6-2.3,5.6-2.3C34.5,29.8,30.6,32.9,30.6,32.9
					 M26.2,22.1c-2-1.2-1.1-6-1.1-6c4.7,0.3,6.9,4.7,6.9,4.7C27.9,24,26.2,22.1,26.2,22.1 M19.1,35.1c2.1-4.7,4.5-3.9,4.5-3.9
					c2.4,0.1,3.8,4.7,3.8,4.7C23.2,37.9,19.1,35.1,19.1,35.1 M14.5,20.9c1.8-4.4,6.7-5.1,6.7-5.1c1.6,4.9-0.7,5.9-0.7,5.9
					C18.8,23.3,14.5,20.9,14.5,20.9 M15.7,32.7c0,0-2.9-2.8-3-7.8c0,0,5.5,0.2,5.8,3C18.5,27.9,17.9,32,15.7,32.7 M23.3,12.2
					c-7.7,0-13.9,6.2-13.9,13.9c0,7.7,6.2,13.9,13.9,13.9c7.7,0,13.9-6.2,13.9-13.9C37.2,18.4,31,12.2,23.3,12.2"/>
				<path id="Stroke-3" class="st1" d="M30.2,6.9c-1-0.4-2-0.6-3-0.8l-1-3.3h-5.6l-1,3.3c-1,0.2-1.9,0.4-2.8,0.8l-2.5-2.4L9.2,7.3
					l0.8,3.4c-0.7,0.6-1.4,1.3-2,2l-3.4-0.8l-2.9,4.9l2.3,2.5c-0.4,1-0.6,2-0.8,3.1l-3.3,1v5.6l3.3,1c0.2,1,0.4,1.9,0.8,2.8
					l-2.3,2.5l2.8,4.9l3.3-0.8c0.6,0.7,1.3,1.4,2,2l-0.8,3.3l4.9,2.9l2.5-2.3c1,0.4,2,0.7,3.1,0.9l1,3.3h5.6l1-3.3
					c1-0.2,1.9-0.5,2.9-0.8l2.5,2.3l4.9-2.8l-0.8-3.3c0.7-0.6,1.4-1.3,2-2l3.3,0.8l2.9-4.9L42.5,33c0.4-1,0.6-2,0.8-3.1l3.3-1"/>
				<path id="Stroke-5" class="st1" d="M33.7,26.1c0,5.7-4.7,10.4-10.4,10.4c-5.7,0-10.4-4.7-10.4-10.4s4.7-10.4,10.4-10.4
					C29.1,15.7,33.7,20.3,33.7,26.1z"/>
				<path id="Stroke-7" class="st1" d="M37.3,26.1c0,7.7-6.2,14-14,14s-14-6.2-14-14s6.2-14,14-14c1.6,0,3.2,0.3,4.6,0.8"/>
				<path id="Fill-9" class="st2" d="M24.4,23.8c0,0.6-0.5,1-1,1s-1-0.5-1-1c0-0.6,0.5-1,1-1S24.4,23.2,24.4,23.8"/>
				<path id="Fill-11" class="st2" d="M22,25.3c0,0.6-0.5,1-1,1c-0.6,0-1-0.5-1-1c0-0.6,0.5-1,1-1C21.6,24.3,22,24.8,22,25.3"/>
				<path id="Fill-13" class="st2" d="M26.6,25.3c0,0.6-0.5,1-1,1s-1-0.5-1-1c0-0.6,0.5-1,1-1S26.6,24.8,26.6,25.3"/>
				<path id="Fill-15" class="st2" d="M25.7,28c0,0.6-0.5,1-1,1c-0.6,0-1-0.5-1-1c0-0.6,0.5-1,1-1C25.2,26.9,25.7,27.4,25.7,28"/>
				<path id="Fill-17" class="st2" d="M23,28c0,0.6-0.5,1-1,1s-1-0.5-1-1c0-0.6,0.5-1,1-1S23,27.4,23,28"/>
				<path id="Stroke-19" class="st1" d="M25.2,15.9v3.5c0,0-0.1,1.6,1.1,2.4c0.6,0.4,1.5,0.7,2.9,0.2l3.1-1.1"/>
				<path id="Stroke-21" class="st1" d="M21.5,15.8v3.6c0,0,0.1,1.6-1.1,2.4c-0.6,0.4-1.5,0.7-2.9,0.2l-3.3-1.2"/>
				<path id="Stroke-23" class="st1" d="M19,35.5l2-3c0,0,0.8-1.3,2.3-1.3c0.7,0,1.6,0.3,2.5,1.5l1.9,2.7"/>
				<path id="Stroke-25" class="st1" d="M13,24.7l3.5,1.1c0,0,1.5,0.4,1.9,1.8c0.2,0.7,0.2,1.7-0.7,2.9l-2,2.5"/>
				<path id="Stroke-27" class="st1" d="M33.7,24.7l-3.6,1.2c0,0-1.5,0.4-1.9,1.8c-0.2,0.7-0.2,1.7,0.7,2.9l2.1,2.6"/>
				<g id="Group-31" transform="translate(32.500000, 0.236583)">
					<g id="Clip-30">
					</g>
					<defs>
						<filter id="Adobe_OpacityMaskFilter" filterUnits="userSpaceOnUse" x="0.7" y="0.6" width="22.5" height="22.5">
							<feColorMatrix  type="matrix" values="1 0 0 0 0  0 1 0 0 0  0 0 1 0 0  0 0 0 1 0"/>
						</filter>
					</defs>
					<mask maskUnits="userSpaceOnUse" x="0.7" y="0.6" width="22.5" height="22.5" id="mask-2_1_">
						<g class="st3">
							<polygon id="path-1_1_" class="st4" points="0.7,0.6 23.2,0.6 23.2,23.1 0.7,23.1 							"/>
						</g>
					</mask>
					<path id="Fill-29" class="st5" d="M23.2,11.8c0,6.2-5,11.2-11.3,11.2c-6.2,0-11.3-5-11.3-11.2c0-6.2,5-11.3,11.3-11.3
						C18.2,0.6,23.2,5.6,23.2,11.8"/>
				</g>
				<polygon id="Fill-32" class="st4" points="51,8.9 48.9,6.9 42.7,13.2 39.9,10.5 37.9,12.5 40.8,15.2 42.8,17.3 44.8,15.3 				
					"/>
			</g>
		</g>
	</g>
</g>
</svg>
