<?xml version="1.0" encoding="utf-8"?>
<!-- Generator: Adobe Illustrator 25.2.1, SVG Export Plug-In . SVG Version: 6.00 Build 0)  -->
<svg version="1.1" id="Layer_1" xmlns="http://www.w3.org/2000/svg" xmlns:xlink="http://www.w3.org/1999/xlink" x="0px" y="0px"
	 width="45px" height="51px" viewBox="0 0 45 51" style="enable-background:new 0 0 45 51;" xml:space="preserve">
<style type="text/css">
	.st0{fill-rule:evenodd;clip-rule:evenodd;fill:#D0D2D3;}
	.st1{fill:none;stroke:#000000;stroke-width:2.04;}
	.st2{fill-rule:evenodd;clip-rule:evenodd;fill:#004E97;}
</style>
<desc>Created with Sketch.</desc>
<g id="Symbols">
	<g id="diy-library" transform="translate(-8.000000, 0.000000)">
		<g id="Group-21" transform="translate(9.000000, 1.000000)">
			<path id="Fill-1" class="st0" d="M13,12.2c0.9-1.2,1.2-3,0.7-4.9c-0.8-3.5-4.9-5.5-6.8-5.1L7,2.2c0,0-0.1,0-0.1,0l3.8,4L8,9.1
				l0,0l-1.4,1.5c-0.3,0.1-0.7,0-0.9-0.2l-5.1-5c-1.5,4.2,0.1,7.2,1.6,8.8c3.2,3.5,6.4,2.9,9.4,2.2l4.7,4.7l2.7-2.7L13,12.2z"/>
			<path id="Fill-3" class="st0" d="M30,35.3l6.5,6.5c0.9,0.9,2.3,0.9,3.2,0c0.9-0.9,0.4-1.7-0.5-2.6l-6.5-6.5L30,35.3z"/>
			<path id="Stroke-5" class="st1" d="M8.5,32.6l1.7-1.7c0,0,1.9-1.7,0-5c0,0-2.4-3.7,3.5-7.3"/>
			<path id="Stroke-7" class="st1" d="M14.5,22.6l8.6-8.6c0,0,1.6-1.6,3.6,0c0,0,2,1.5,0,3.5c0,0,1.8-1.6,3.5,0c0,0,1.7,1.8,0,3.5
				c0,0,1.9-1.6,3.5,0c0,0,1.6,1.9,0,3.5c0,0,1.8-1.7,3.5,0c0,0,1.7,1.8,0,3.5l-10,10c0,0-1.5,1.8-3.9,1.5c0,0-2.3-0.3-3.7,1.3
				l-1.4,1.4"/>
			<path id="Stroke-9" class="st1" d="M30,35.2l6.5,6.5c1.3,1.3,3.3,1.3,4.6,0c1.3-1.3,1.3-3.3,0-4.6l-6.5-6.5L30,35.2z"/>
			<path id="Stroke-11" class="st1" d="M11.6,16.3l4.6,4.6l4.6-4.6l-4.6-4.6c1.2-3,0.6-6.7-1.8-9.2C12,0,8.3-0.6,5.3,0.6l4.9,4.9
				c0.5,0.5,0.5,1.4,0,1.9l-2.8,2.8c-0.5,0.5-1.4,0.5-1.9,0L0.6,5.3c-1.2,3-0.6,6.6,1.9,9.1C5,16.9,8.6,17.5,11.6,16.3z"/>
			<path id="Stroke-13" class="st1" d="M25.3,18.9l2.6-2.6"/>
			<path id="Stroke-15" class="st1" d="M28.8,22.4l2.6-2.6"/>
			<path id="Stroke-17" class="st1" d="M32.3,25.9l2.6-2.6"/>
			<polygon id="Fill-19" class="st2" points="20.8,44.6 15.9,49.5 1.6,35.2 6.5,30.3 			"/>
		</g>
	</g>
</g>
</svg>
