<?xml version="1.0" encoding="utf-8"?>
<!-- Generator: Adobe Illustrator 25.2.1, SVG Export Plug-In . SVG Version: 6.00 Build 0)  -->
<svg version="1.1" id="Layer_1" xmlns="http://www.w3.org/2000/svg" xmlns:xlink="http://www.w3.org/1999/xlink" x="0px" y="0px"
	 width="56px" height="50px" viewBox="0 0 56 50" style="enable-background:new 0 0 56 50;" xml:space="preserve">
<style type="text/css">
	.st0{fill-rule:evenodd;clip-rule:evenodd;fill:#D0D2D3;}
	.st1{fill:none;stroke:#000000;stroke-width:2.04;}
	.st2{fill-rule:evenodd;clip-rule:evenodd;fill:#004E97;}
</style>
<desc>Created with Sketch.</desc>
<g id="Symbols">
	<g id="maintenance-schedule" transform="translate(-13.000000, 0.000000)">
		<g id="Group-33" transform="translate(15.000000, 0.000000)">
			<polygon id="Fill-1" class="st0" points="39.4,37.9 39.4,33.2 31.1,37.9 			"/>
			<g id="Group-32" transform="translate(0.000000, 0.049153)">
				<path id="Fill-2" class="st0" d="M12.1,37.9c0.9-1.4,1.6-1.9,2.7-2.7c2.2-1.4,5.9-1.2,8.2,0.5L38.5,27c-0.1-2.2,0.1-3,1-4.6
					v-5.4H3.4v20.9H12.1z"/>
				<polyline id="Stroke-4" class="st1" points="36.1,4.2 42.8,4.2 42.8,14.5 				"/>
				<path id="Stroke-6" class="st1" d="M12,4.2h18.8"/>
				<polyline id="Stroke-8" class="st1" points="6.7,4.2 0,4.2 0,41.2 7.5,41.2 				"/>
				<path id="Stroke-10" class="st1" d="M0,13.7h43.6"/>
				<path id="Stroke-12" class="st1" d="M29.2,20.5h6.2"/>
				<path id="Stroke-14" class="st1" d="M7.5,20.5h6.2"/>
				<path id="Stroke-16" class="st1" d="M7.5,27.3h6.2"/>
				<path id="Stroke-18" class="st1" d="M7.5,33.8h2.9"/>
				<path id="Stroke-20" class="st1" d="M18.4,20.5h6.2"/>
				<path id="Stroke-22" class="st1" d="M18.4,27.3h6.2"/>
				<path id="Stroke-24" class="st1" d="M9.4,0.8v6.1"/>
				<path id="Stroke-26" class="st1" d="M33.4,0.8v6.1"/>
				<path id="Fill-28" class="st2" d="M53.3,25.4l-6,3.4l-2.9-5.1l6-3.4c-2.3-1.8-5.6-2.2-8.3-0.6c-2.7,1.5-4.1,4.5-3.7,7.3L23,35.8
					c-2.3-1.8-5.5-2.1-8.2-0.6c-2.7,1.5-4.1,4.5-3.7,7.4l6.1-3.4l2.9,5.1l-6,3.4c2.3,1.7,5.5,2,8.1,0.5c2.7-1.5,4-4.4,3.7-7.3
					l15.5-8.8c2.3,1.7,5.5,2.1,8.2,0.5C52.2,31.1,53.6,28.3,53.3,25.4"/>
				<polyline id="Stroke-30" class="st1" points="33.1,41.2 42.8,41.2 42.8,37.8 				"/>
			</g>
		</g>
	</g>
</g>
</svg>
