<?xml version="1.0" encoding="utf-8"?>
<!-- Generator: Adobe Illustrator 25.2.1, SVG Export Plug-In . SVG Version: 6.00 Build 0)  -->
<svg version="1.1" id="Layer_1" xmlns="http://www.w3.org/2000/svg" xmlns:xlink="http://www.w3.org/1999/xlink" x="0px" y="0px"
	 width="56px" height="50px" viewBox="0 0 56 50" style="enable-background:new 0 0 56 50;" xml:space="preserve">
<style type="text/css">
	.st0{fill-rule:evenodd;clip-rule:evenodd;fill:#D0D2D3;}
	.st1{fill-rule:evenodd;clip-rule:evenodd;fill:#004E97;}
	.st2{fill:none;stroke:#FFFFFF;stroke-width:3.136;}
	.st3{fill:none;stroke:#000000;stroke-width:2.04;}
</style>
<desc>Created with Sketch.</desc>
<g id="Symbols">
	<g id="maintenance-history" transform="translate(-13.000000, 0.000000)">
		<g id="Group-4-Copy">
			<g id="Group-47" transform="translate(14.000000, 0.000000)">
				<path id="Fill-1" class="st0" d="M5.5,13.7H0.2v24.8c0,1,0.8,1.9,1.9,1.9l3.4,0"/>
				<path id="Fill-3" class="st0" d="M47,5.8c0-1-0.8-1.9-1.9-1.9H2.2c-1,0-1.9,0.8-1.9,1.9l0,4.1H47V5.8z"/>
				<path id="Fill-5" class="st1" d="M32.4,29.9c-3.9,5.6-2.5,13.3,3.1,17.2c5.6,3.9,13.3,2.5,17.2-3.1c3.9-5.6,2.5-13.3-3.1-17.2
					C44,22.9,36.3,24.3,32.4,29.9"/>
				<polyline id="Stroke-7" class="st2" points="48.1,32.9 41.3,40.1 37.4,36.7 				"/>
				<path id="Stroke-9" class="st3" d="M14.2,20.2h3.5"/>
				<path id="Stroke-11" class="st3" d="M14.2,26.5h3.5"/>
				<path id="Stroke-13" class="st3" d="M20.5,20.2h3.5"/>
				<path id="Stroke-15" class="st3" d="M20.5,26.5h3.5"/>
				<path id="Stroke-17" class="st3" d="M14.2,33h3.5"/>
				<path id="Stroke-19" class="st3" d="M20.5,33h3.5"/>
				<path id="Stroke-21" class="st3" d="M26.9,20.2h3.5"/>
				<path id="Stroke-23" class="st3" d="M26.9,26.5h3.5"/>
				<path id="Stroke-25" class="st3" d="M33.1,20.2h3.5"/>
				<path id="Stroke-27" class="st3" d="M8,26.5h3.5"/>
				<path id="Stroke-29" class="st3" d="M8,33h3.5"/>
				<path id="Stroke-31" class="st3" d="M0.3,13.8h46.6"/>
				<path id="Stroke-33" class="st3" d="M13.1,3.8h20.8"/>
				<path id="Stroke-35" class="st3" d="M10.2,0v7.4"/>
				<path id="Stroke-37" class="st3" d="M36.7,0v7.4"/>
				<path id="Stroke-39" class="st3" d="M26.9,40.5H2.2c-1.2,0-2.2-1-2.2-2.2V5.9c0-1.2,1-2.2,2.2-2.2h5.1"/>
				<path id="Stroke-41" class="st3" d="M46.9,21.6v-8.9"/>
				<path id="Stroke-43" class="st3" d="M39.6,3.7h5.1c1.2,0,2.2,1,2.2,2.2v8.6"/>
				<path id="Stroke-45" class="st3" d="M39.6,3.7h5.1c1.2,0,2.2,1,2.2,2.2v8.8"/>
			</g>
		</g>
	</g>
</g>
</svg>
