<?xml version="1.0" encoding="utf-8"?>
<!-- Generator: Adobe Illustrator 25.2.1, SVG Export Plug-In . SVG Version: 6.00 Build 0)  -->
<svg version="1.1" id="Layer_1" xmlns="http://www.w3.org/2000/svg" xmlns:xlink="http://www.w3.org/1999/xlink" x="0px" y="0px"
	 width="40px" height="51px" viewBox="0 0 40 51" style="enable-background:new 0 0 40 51;" xml:space="preserve">
<style type="text/css">
	.st0{fill:none;stroke:#000000;stroke-width:2.04;}
	.st1{fill-rule:evenodd;clip-rule:evenodd;fill:#004E97;}
	.st2{fill:none;stroke:#004E97;}
	.st3{filter:url(#Adobe_OpacityMaskFilter);}
	.st4{fill-rule:evenodd;clip-rule:evenodd;fill:#FFFFFF;}
	.st5{mask:url(#mask-2_1_);fill-rule:evenodd;clip-rule:evenodd;fill:#D0D2D3;}
</style>
<desc>Created with Sketch.</desc>
<g id="Symbols">
	<g id="owners-manual" transform="translate(-29.000000, 1.000000)">
		<g id="Group-17" transform="translate(30.000000, 0.000000)">
			<path id="Stroke-1" class="st0" d="M8,46.3H5.8c-2.7,0-5-2.2-5-5c0-2.7,2.2-5,5-5l0.6,0l30.9,0"/>
			<path id="Stroke-3" class="st0" d="M19.5,46.3h17.8V0.9l-30.7,0c-6,0-5.8,5.6-5.8,5.6v34.9"/>
			<path id="Stroke-5" class="st0" d="M4.5,42.1h5.9"/>
			<polyline id="Stroke-7" class="st0" points="17,42.1 32.5,42.1 32.6,36.4 			"/>
			<path id="Stroke-9" class="st0" d="M6.3,5v28.1"/>
			<polygon id="Fill-11" class="st1" points="17,49 13.7,46.3 10.5,49 10.5,39.8 17,39.8 			"/>
			<polygon id="Stroke-13" class="st2" points="17,49 13.7,46.3 10.5,49 10.5,39.8 17,39.8 			"/>
			<g id="Clip-16">
			</g>
			<defs>
				<filter id="Adobe_OpacityMaskFilter" filterUnits="userSpaceOnUse" x="12.5" y="8.9" width="16.3" height="20">
					<feColorMatrix  type="matrix" values="1 0 0 0 0  0 1 0 0 0  0 0 1 0 0  0 0 0 1 0"/>
				</filter>
			</defs>
			<mask maskUnits="userSpaceOnUse" x="12.5" y="8.9" width="16.3" height="20" id="mask-2_1_">
				<g class="st3">
					<polygon id="path-1_1_" class="st4" points="0,49.9 38.1,49.9 38.1,0 0,0 					"/>
				</g>
			</mask>
			<polygon id="Fill-15" class="st5" points="12.5,28.9 28.8,28.9 28.8,8.9 12.5,8.9 			"/>
		</g>
	</g>
</g>
</svg>
