<?xml version="1.0" encoding="utf-8"?>
<!-- Generator: Adobe Illustrator 25.2.1, SVG Export Plug-In . SVG Version: 6.00 Build 0)  -->
<svg version="1.1" id="Layer_1" xmlns="http://www.w3.org/2000/svg" xmlns:xlink="http://www.w3.org/1999/xlink" x="0px" y="0px"
	 width="65px" height="50px" viewBox="0 0 65 50" style="enable-background:new 0 0 65 50;" xml:space="preserve">
<style type="text/css">
	.st0{fill-rule:evenodd;clip-rule:evenodd;fill:#D0D2D3;}
	.st1{fill:none;stroke:#000000;stroke-width:2.04;}
	.st2{fill-rule:evenodd;clip-rule:evenodd;fill:#004E97;}
</style>
<desc>Created with Sketch.</desc>
<g id="Symbols">
	<g id="parts-catalog" transform="translate(-10.000000, 1.000000)">
		<g id="Group-4">
			<g id="Group-17" transform="translate(11.000000, 0.000000)">
				<path id="Fill-1" class="st0" d="M26.6,15.8c0,2.6,2.1,4.8,4.8,4.8c2.6,0,4.8-2.1,4.8-4.8c0-2.6-2.1-4.8-4.8-4.8
					C28.8,11,26.6,13.1,26.6,15.8"/>
				<path id="Fill-3" class="st0" d="M40.2,7.3c0.5,0.5,0.9,1,1.2,1.5l2.8-1.3l2.2,4.8l-3,1.3c0.1,0.7,0.2,1.4,0.2,2.1
					c0,0.7-0.1,1.4-0.2,2.1l3,1.3L44.2,24l-2.8-1.3c-0.8,1.2-1.9,2.3-3.1,3.1l1.3,2.7l-4.8,2.2l-1.4-3c-0.7,0.1-1.3,0.2-2,0.2
					c-0.7,0-1.4-0.1-2-0.2l-1.4,3l-4.8-2.2l1.3-2.7c-1.2-0.8-2.3-1.9-3.1-3.1L18.6,24l-2.2-4.8l3-1.3c-0.1-0.7-0.2-1.4-0.2-2.1
					c0-0.7,0.1-1.4,0.2-2.1l-3-1.3l2.2-4.8l2.8,1.3c0.4-0.5,0.8-1,1.2-1.5H11.3v32.1H26l2.1,2.7h7.6l2.3-2.7h13.6V7.3H40.2z"/>
				<path id="Stroke-5" class="st1" d="M11.1,0.9H7.1c-1.7,0-3.1,1.4-3.1,3.1v35.3"/>
				<path id="Stroke-7" class="st1" d="M58.9,39.5V4.1c0-1.7-1.4-3.1-3.1-3.1h-4"/>
				<path id="Stroke-9" class="st1" d="M38,39.4l-2.6,2.7h-7.1L26,39.4H0v2.2c0,3.5,2.8,6.3,6.3,6.3h50.2c3.5,0,6.3-2.8,6.3-6.3
					v-2.2H38z"/>
				<path id="Stroke-11" class="st1" d="M8.1,7.3v31.8"/>
				<path id="Stroke-13" class="st1" d="M54.7,7.4v31.7"/>
				<path id="Fill-15" class="st2" d="M31.4,20.5c-2.6,0-4.8-2.1-4.8-4.8s2.1-4.8,4.8-4.8s4.8,2.1,4.8,4.8S34,20.5,31.4,20.5
					 M43.6,15.8c0-0.7-0.1-1.4-0.2-2.1l3-1.3l-2.2-4.8l-2.8,1.3c-0.8-1.2-1.9-2.3-3.1-3.1L39.6,3l-4.8-2.2l-1.4,3
					c-0.7-0.1-1.3-0.2-2-0.2c-0.7,0-1.4,0.1-2,0.2l-1.4-3L23.2,3l1.3,2.7c-1.2,0.8-2.3,1.9-3.1,3.1l-2.8-1.3l-2.2,4.8l3,1.3
					c-0.1,0.7-0.2,1.4-0.2,2.1s0.1,1.4,0.2,2.1l-3,1.3l2.2,4.8l2.8-1.3c0.8,1.2,1.9,2.3,3.1,3.1l-1.3,2.7l4.8,2.2l1.4-3
					c0.7,0.1,1.3,0.2,2,0.2c0.7,0,1.4-0.1,2-0.2l1.4,3l4.8-2.2l-1.3-2.7c1.2-0.8,2.3-1.9,3.1-3.1l2.8,1.3l2.2-4.8l-3-1.3
					C43.6,17.2,43.6,16.5,43.6,15.8"/>
			</g>
		</g>
	</g>
</g>
</svg>
