<?xml version="1.0" encoding="utf-8"?>
<!-- Generator: Adobe Illustrator 25.2.1, SVG Export Plug-In . SVG Version: 6.00 Build 0)  -->
<svg version="1.1" id="Layer_1" xmlns="http://www.w3.org/2000/svg" xmlns:xlink="http://www.w3.org/1999/xlink" x="0px" y="0px"
	 width="63px" height="44px" viewBox="0 0 63 44" style="enable-background:new 0 0 63 44;" xml:space="preserve">
<style type="text/css">
	.st0{fill-rule:evenodd;clip-rule:evenodd;fill:#D0D2D3;}
	.st1{filter:url(#Adobe_OpacityMaskFilter);}
	.st2{fill-rule:evenodd;clip-rule:evenodd;fill:#FFFFFF;}
	.st3{mask:url(#mask-2_1_);fill-rule:evenodd;clip-rule:evenodd;fill:#004E97;}
	.st4{fill:none;stroke:#000000;stroke-width:2.04;}
	.st5{fill:none;stroke:#004E97;stroke-width:2;}
</style>
<desc>Created with Sketch.</desc>
<g id="Symbols">
	<g id="product-recalls" transform="translate(-19.000000, -3.000000)">
		<g id="Group-6-Copy">
			<g id="Group-18" transform="translate(20.000000, 2.000000)">
				<path id="Fill-1" class="st0" d="M35.2,20.7C35.2,20.6,35.2,20.7,35.2,20.7c0-6.3-4.2-12.4-9.4-12.5c-5.8-0.1-8.5,6.1-8.5,12.4
					c0,0-0.6,9.9-4.5,16.6h27.2C39.9,37.3,35,31.2,35.2,20.7"/>
				<g id="Group-5" transform="translate(25.000000, 0.078200)">
					<g id="Clip-4">
					</g>
					<defs>
						<filter id="Adobe_OpacityMaskFilter" filterUnits="userSpaceOnUse" x="0.7" y="0.9" width="9.1" height="5.3">
							<feColorMatrix  type="matrix" values="1 0 0 0 0  0 1 0 0 0  0 0 1 0 0  0 0 0 1 0"/>
						</filter>
					</defs>
					<mask maskUnits="userSpaceOnUse" x="0.7" y="0.9" width="9.1" height="5.3" id="mask-2_1_">
						<g class="st1">
							<polygon id="path-1_1_" class="st2" points="0.7,0.9 9.8,0.9 9.8,6.2 0.7,6.2 							"/>
						</g>
					</mask>
					<path id="Fill-3" class="st3" d="M0.8,6.2c0-0.2-0.1-0.5-0.1-0.8c0-2.5,2-4.5,4.5-4.5c2.5,0,4.6,2,4.6,4.5c0,0.2,0,0.5,0,0.7"
						/>
				</g>
				<path id="Stroke-6" class="st4" d="M35.6,41.1c-4.6,3.7-9.2,1.4-10.6,0"/>
				<path id="Stroke-8" class="st4" d="M43.1,18.5C43.1,18.5,43.1,18.5,43.1,18.5c0-7.2-5.8-12.9-12.9-12.9
					c-7.1,0-12.9,5.8-12.9,12.9c0,0,0.5,11.2-4.9,18.8h35.7C48.1,37.3,42.9,30.4,43.1,18.5z"/>
				<path id="Stroke-10" class="st5" d="M5.5,35.4C2.1,32.3,0,27.9,0,23c0-4.8,2-9.1,5.3-12.1"/>
				<path id="Stroke-12" class="st5" d="M9.1,29.7C7.2,28.1,6,25.7,6,23c0-2.6,1.2-5,3-6.6"/>
				<path id="Stroke-14" class="st5" d="M55,10.9c3.4,3,5.5,7.4,5.5,12.3c0,4.8-2,9.1-5.3,12.1"/>
				<path id="Stroke-16" class="st5" d="M51.4,16.6c1.9,1.6,3.1,4,3.1,6.7c0,2.6-1.2,5-3,6.6"/>
			</g>
		</g>
	</g>
</g>
</svg>
