<?xml version="1.0" encoding="utf-8"?>
<!-- Generator: Adobe Illustrator 25.2.1, SVG Export Plug-In . SVG Version: 6.00 Build 0)  -->
<svg version="1.1" id="Layer_1" xmlns="http://www.w3.org/2000/svg" xmlns:xlink="http://www.w3.org/1999/xlink" x="0px" y="0px"
	 width="39px" height="51px" viewBox="0 0 39 51" style="enable-background:new 0 0 39 51;" xml:space="preserve">
<style type="text/css">
	.st0{fill-rule:evenodd;clip-rule:evenodd;fill:#D0D2D3;}
	.st1{fill:none;stroke:#000000;stroke-width:2.04;}
	.st2{fill-rule:evenodd;clip-rule:evenodd;fill:#004E97;}
</style>
<desc>Created with Sketch.</desc>
<g id="Symbols">
	<g id="purchase-service-manual" transform="translate(-30.000000, 1.000000)">
		<g id="Group-6">
			<g id="Group-13" transform="translate(31.000000, 0.000000)">
				<polygon id="Fill-1" class="st0" points="4.8,31.4 32.7,31.4 32.7,5.5 4.8,5.5 				"/>
				<g id="Group-12" transform="translate(0.000000, 0.121491)">
					<path id="Stroke-2" class="st1" d="M13.7,28.4l6.3-6.1c0.5,0.1,1.1,0.2,1.7,0.2c3.7,0,6.7-3,6.7-6.7c0-1-0.2-2-0.6-2.8
						l-4.3,4.1L20.4,14l4.3-4.1c-0.9-0.4-1.9-0.7-3-0.7c-3.7,0-6.7,3-6.7,6.7c0,0.7,0.1,1.4,0.3,2l-6.2,6"/>
					<polygon id="Fill-4" class="st2" points="31.3,49.1 26.9,46 22.7,49.1 22.7,39.7 31.3,39.7 					"/>
					<path id="Stroke-6" class="st1" d="M19.6,43.1H4c-2.2,0-4-1.8-4-4s1.8-4,4-4l0.4,0l32.3,0"/>
					<path id="Stroke-8" class="st1" d="M0,39.1V6.2c0,0-0.2-5.4,5.6-5.5l31.1,0v42.3h-2.3"/>
					<path id="Stroke-10" class="st1" d="M4.9,5.3v25.9"/>
				</g>
			</g>
		</g>
	</g>
</g>
</svg>
